<svg xmlns="http://www.w3.org/2000/svg" version="1.1" xmlns:xlink="http://www.w3.org/1999/xlink" xmlns:svgjs="http://svgjs.dev/svgjs" width="1500" height="1500" viewBox="0 0 1500 1500"><rect width="1500" height="1500" fill="#ffffff"></rect><g transform="matrix(0.6666666666666666,0,0,0.6666666666666666,249.39393939393938,645.2257648453267)"><svg viewBox="0 0 396 83" data-background-color="#f9f7f4" preserveAspectRatio="xMidYMid meet" height="314" width="1500" xmlns="http://www.w3.org/2000/svg" xmlns:xlink="http://www.w3.org/1999/xlink"><g id="tight-bounds" transform="matrix(1,0,0,1,0.2400000000000091,0.042650562919874346)"><svg viewBox="0 0 395.52 82.91469887416024" height="82.91469887416024" width="395.52"><g><svg viewBox="0 0 575.9402971159074 120.73704567369498" height="82.91469887416024" width="395.52"><g><rect width="5.3601211990566835" height="87.80081830829481" x="161.02844502926774" y="16.468113682700086" fill="#000000" opacity="1" stroke-width="0" stroke="transparent" fill-opacity="1" class="rect-qz-0" data-fill-palette-color="primary" rx="1%" id="qz-0" data-palette-color="#ff5a00"></rect></g><g transform="matrix(1,0,0,1,180.42029711590737,16.68652367849186)"><svg viewBox="0 0 395.52 87.36399831671126" height="87.36399831671126" width="395.52"><g id="textblocktransform"><svg viewBox="0 0 395.52 87.36399831671126" height="87.36399831671126" width="395.52" id="textblock"><g><svg viewBox="0 0 395.52 59.437345971563985" height="59.437345971563985" width="395.52"><g transform="matrix(1,0,0,1,0,0)"><svg width="395.52" viewBox="3.85 -37.45 250.33 38.050000000000004" height="59.437345971563985" data-palette-color="#ff5a00"><g class="wordmark-text-0" data-fill-palette-color="primary" id="text-0"><path d="M3.85 0L3.85-34.9 20.8-34.9Q25.15-34.9 27.58-32.45 30-30 30-25.95L30-25.95Q30-23.95 29.48-22.55 28.95-21.15 28.08-20.25 27.2-19.35 26.03-18.93 24.85-18.5 23.5-18.45L23.5-18.45 23.5-18.15Q24.75-18.15 26.13-17.7 27.5-17.25 28.65-16.28 29.8-15.3 30.58-13.75 31.35-12.2 31.35-9.95L31.35-9.95Q31.35-7.9 30.68-6.08 30-4.25 28.8-2.9 27.6-1.55 25.95-0.78 24.3 0 22.35 0L22.35 0 3.85 0ZM11.45-14.4L11.45-6.4 20.2-6.4Q21.7-6.4 22.58-7.23 23.45-8.05 23.45-9.55L23.45-9.55 23.45-11.25Q23.45-12.75 22.58-13.58 21.7-14.4 20.2-14.4L20.2-14.4 11.45-14.4ZM11.45-28.5L11.45-20.6 19-20.6Q20.5-20.6 21.35-21.45 22.2-22.3 22.2-23.8L22.2-23.8 22.2-25.3Q22.2-26.8 21.35-27.65 20.5-28.5 19-28.5L19-28.5 11.45-28.5ZM52.3 0L52.3-4.4 52.05-4.4Q51.7-3.4 51.12-2.5 50.55-1.6 49.65-0.9 48.75-0.2 47.52 0.2 46.3 0.6 44.7 0.6L44.7 0.6Q40.65 0.6 38.57-2.08 36.5-4.75 36.5-9.75L36.5-9.75 36.5-26.25 43.9-26.25 43.9-10.4Q43.9-8 44.75-6.7 45.6-5.4 47.65-5.4L47.65-5.4Q48.5-5.4 49.35-5.65 50.2-5.9 50.85-6.38 51.5-6.85 51.9-7.55 52.3-8.25 52.3-9.2L52.3-9.2 52.3-26.25 59.7-26.25 59.7 0 52.3 0ZM69.25-34.9L87.45-34.9 87.45-10.1Q87.45-7.7 86.67-5.73 85.9-3.75 84.4-2.38 82.9-1 80.77-0.23 78.65 0.55 75.95 0.55L75.95 0.55Q73.35 0.55 71.37-0.15 69.4-0.85 67.97-2.15 66.55-3.45 65.65-5.25 64.75-7.05 64.4-9.25L64.4-9.25 71.5-10.65Q72.35-6.1 75.85-6.1L75.85-6.1Q77.5-6.1 78.67-7.15 79.85-8.2 79.85-10.45L79.85-10.45 79.85-28.8 69.25-28.8 69.25-34.9ZM98.24-29.05L98.24-29.05Q95.99-29.05 94.97-30.08 93.94-31.1 93.94-32.7L93.94-32.7 93.94-33.8Q93.94-35.4 94.97-36.43 95.99-37.45 98.24-37.45L98.24-37.45Q100.49-37.45 101.52-36.43 102.54-35.4 102.54-33.8L102.54-33.8 102.54-32.7Q102.54-31.1 101.52-30.08 100.49-29.05 98.24-29.05ZM94.54 0L94.54-26.25 101.94-26.25 101.94 0 94.54 0Z" fill="#000000" data-fill-palette-color="primary"></path><path d="M121.49-29.05L121.49-29.05Q119.24-29.05 118.21-30.08 117.19-31.1 117.19-32.7L117.19-32.7 117.19-33.8Q117.19-35.4 118.21-36.43 119.24-37.45 121.49-37.45L121.49-37.45Q123.74-37.45 124.76-36.43 125.79-35.4 125.79-33.8L125.79-33.8 125.79-32.7Q125.79-31.1 124.76-30.08 123.74-29.05 121.49-29.05ZM117.79 0L117.79-26.25 125.19-26.25 125.19 0 117.79 0ZM140.99 0.6L140.99 0.6Q137.19 0.6 134.59-0.63 131.99-1.85 129.94-4.1L129.94-4.1 134.29-8.5Q135.69-6.95 137.38-6.05 139.09-5.15 141.24-5.15L141.24-5.15Q143.44-5.15 144.29-5.83 145.13-6.5 145.13-7.65L145.13-7.65Q145.13-9.5 142.49-9.85L142.49-9.85 139.63-10.2Q130.79-11.3 130.79-18.3L130.79-18.3Q130.79-20.2 131.51-21.78 132.24-23.35 133.56-24.48 134.88-25.6 136.76-26.23 138.63-26.85 140.99-26.85L140.99-26.85Q143.04-26.85 144.61-26.58 146.19-26.3 147.41-25.78 148.63-25.25 149.66-24.48 150.69-23.7 151.69-22.75L151.69-22.75 147.44-18.4Q146.19-19.65 144.61-20.38 143.04-21.1 141.38-21.1L141.38-21.1Q139.49-21.1 138.69-20.5 137.88-19.9 137.88-18.9L137.88-18.9Q137.88-17.85 138.46-17.28 139.04-16.7 140.63-16.45L140.63-16.45 143.59-16.05Q152.24-14.9 152.24-8.15L152.24-8.15Q152.24-6.25 151.44-4.65 150.63-3.05 149.16-1.88 147.69-0.7 145.61-0.05 143.54 0.6 140.99 0.6ZM167.98 0L164.63 0Q160.83 0 159.06-1.85 157.28-3.7 157.28-7.2L157.28-7.2 157.28-37 164.68-37 164.68-5.75 167.98-5.75 167.98 0ZM195.93 0L191.83 0Q189.83 0 188.51-1.25 187.18-2.5 186.83-4.6L186.83-4.6 186.53-4.6Q185.93-2.05 183.88-0.73 181.83 0.6 178.83 0.6L178.83 0.6Q174.88 0.6 172.78-1.5 170.68-3.6 170.68-7.05L170.68-7.05Q170.68-11.2 173.71-13.23 176.73-15.25 181.93-15.25L181.93-15.25 186.08-15.25 186.08-16.9Q186.08-18.8 185.08-19.93 184.08-21.05 181.73-21.05L181.73-21.05Q179.53-21.05 178.23-20.1 176.93-19.15 176.08-17.95L176.08-17.95 171.68-21.85Q173.28-24.2 175.71-25.53 178.13-26.85 182.28-26.85L182.28-26.85Q187.88-26.85 190.68-24.4 193.48-21.95 193.48-17.25L193.48-17.25 193.48-5.75 195.93-5.75 195.93 0ZM181.58-4.55L181.58-4.55Q183.43-4.55 184.76-5.35 186.08-6.15 186.08-7.95L186.08-7.95 186.08-11.05 182.48-11.05Q178.13-11.05 178.13-8.1L178.13-8.1 178.13-7.35Q178.13-5.9 179.03-5.23 179.93-4.55 181.58-4.55ZM208.28 0L200.88 0 200.88-26.25 208.28-26.25 208.28-21.8 208.58-21.8Q209.28-23.85 211.03-25.35 212.78-26.85 215.88-26.85L215.88-26.85Q219.93-26.85 222-24.15 224.08-21.45 224.08-16.45L224.08-16.45 224.08 0 216.68 0 216.68-15.85Q216.68-18.4 215.88-19.63 215.08-20.85 213.03-20.85L213.03-20.85Q212.13-20.85 211.28-20.63 210.43-20.4 209.75-19.9 209.08-19.4 208.68-18.68 208.28-17.95 208.28-17L208.28-17 208.28 0ZM246.78 0L246.78-4.4 246.53-4.4Q246.23-3.35 245.58-2.43 244.93-1.5 244-0.83 243.08-0.15 241.9 0.23 240.73 0.6 239.48 0.6L239.48 0.6Q234.48 0.6 231.93-2.93 229.38-6.45 229.38-13.15L229.38-13.15Q229.38-19.85 231.93-23.35 234.48-26.85 239.48-26.85L239.48-26.85Q242.03-26.85 244-25.45 245.98-24.05 246.53-21.85L246.53-21.85 246.78-21.85 246.78-37 254.18-37 254.18 0 246.78 0ZM241.93-5.4L241.93-5.4Q244.03-5.4 245.4-6.43 246.78-7.45 246.78-9.25L246.78-9.25 246.78-17Q246.78-18.8 245.4-19.83 244.03-20.85 241.93-20.85L241.93-20.85Q239.83-20.85 238.45-19.38 237.08-17.9 237.08-15.4L237.08-15.4 237.08-10.85Q237.08-8.35 238.45-6.88 239.83-5.4 241.93-5.4Z" fill="#000000" data-fill-palette-color="primary"></path></g></svg></g></svg></g><g transform="matrix(1,0,0,1,0,73.46907685914692)"><svg viewBox="0 0 232.209792 13.894921457564338" height="13.894921457564338" width="232.209792"><g transform="matrix(1,0,0,1,0,0)"><svg width="232.209792" viewBox="3.25 -36.95 782.87 46.85" height="13.894921457564338" data-palette-color="#ff5a00"><path d="M10.95-13.95L10.95-6.15 15-6.15Q20.7-6.15 20.7-10.05 20.7-13.95 15.05-13.95L15.05-13.95 10.95-13.95ZM15.05-27.55L10.95-27.55 10.95-20 13.8-20Q16.8-20 18.32-21.1 19.85-22.2 19.85-24L19.85-24Q19.85-27.55 15.05-27.55L15.05-27.55ZM3.25 0L3.25-33.7 16.35-33.7Q21.9-33.7 24.8-31.08 27.7-28.45 27.7-24.4L27.7-24.4Q27.7-21.75 26.3-19.75 24.9-17.75 22.65-17.05L22.65-17.05Q28.5-15.3 28.5-9.15L28.5-9.15Q28.5-5.15 25.63-2.58 22.75 0 17.8 0L17.8 0 3.25 0ZM44.45 0.4L44.45 0.4Q38.5 0.4 35.25-3.18 32-6.75 32-12.35L32-12.35Q32-18.2 35.4-21.98 38.8-25.75 44.45-25.75L44.45-25.75Q50.35-25.75 53.6-22.1 56.85-18.45 56.85-12.8L56.85-12.8Q56.85-7.05 53.57-3.33 50.3 0.4 44.45 0.4ZM44.4-20L44.4-20Q42-20 40.8-17.95 39.6-15.9 39.6-12.65 39.6-9.4 40.82-7.33 42.05-5.25 44.5-5.25L44.5-5.25Q46.9-5.25 48.07-7.28 49.25-9.3 49.25-12.55L49.25-12.55Q49.25-20 44.4-20ZM74.14-8.55L74.14-10.4 71.8-10.4Q69.94-10.4 68.94-9.6 67.94-8.8 67.94-7.55L67.94-7.55Q67.94-5 70.89-5L70.89-5Q72.44-5 73.3-5.95 74.14-6.9 74.14-8.55L74.14-8.55ZM62.3-17.55L62.3-17.55 62.3-24.1Q65.3-25.8 70.94-25.8L70.94-25.8Q76.34-25.8 79-23.48 81.64-21.15 81.64-16.25L81.64-16.25 81.64 0 74.5 0 74.5-3.1Q72.89 0.15 68.19 0.15L68.19 0.15Q64.5 0.15 62.42-1.95 60.34-4.05 60.34-7.2L60.34-7.2Q60.34-10.85 63.02-12.88 65.69-14.9 70.94-14.9L70.94-14.9 74.14-14.9 74.14-16.65Q74.14-19.85 69.89-19.85L69.89-19.85Q65.8-19.85 62.3-17.55ZM87.39-25.35L94.64-25.35 94.64-20.65Q95.34-22.85 96.97-24.18 98.59-25.5 100.74-25.5L100.74-25.5Q101.94-25.5 102.64-25.3L102.64-25.3 102.64-18.4Q101.44-18.95 99.89-18.95L99.89-18.95Q97.54-18.95 96.09-17.23 94.64-15.5 94.64-12.65L94.64-12.65 94.64 0 87.34 0 87.39-25.35ZM117.54-5.8L117.54-5.8Q120.04-5.8 121.59-7.75 123.14-9.7 123.14-12.95L123.14-12.95Q123.14-16.1 121.47-17.85 119.79-19.6 117.49-19.6 115.19-19.6 113.62-17.75 112.04-15.9 112.04-12.6L112.04-12.6Q112.04-9.55 113.64-7.68 115.24-5.8 117.54-5.8ZM123.14-21.45L123.14-35.35 130.44-35.35 130.44 0 123.14 0 123.14-3.95Q120.59 0.3 115.54 0.3L115.54 0.3Q110.59 0.3 107.61-3.55 104.64-7.4 104.64-12.75L104.64-12.75Q104.64-18.75 107.74-22.2 110.84-25.65 115.59-25.65L115.59-25.65Q120.54-25.65 123.14-21.45L123.14-21.45ZM160.19-6.65L160.19-6.65Q162.53-6.65 163.86-8.43 165.19-10.2 165.19-12.7L165.19-12.7Q165.19-19.5 160.24-19.5L160.24-19.5Q158.03-19.5 156.78-17.8 155.53-16.1 155.53-13.1L155.53-13.1Q155.53-9.95 156.74-8.3 157.94-6.65 160.19-6.65ZM165.19-22L165.19-25.35 172.44-25.35 172.44-2.45Q172.44 3.65 168.78 6.73 165.13 9.8 159.63 9.8L159.63 9.8Q154.28 9.8 150.28 7.9L150.28 7.9 150.28 0.45Q153.78 3.25 158.88 3.25L158.88 3.25Q162.19 3.25 163.69 1.85 165.19 0.45 165.19-2.55L165.19-2.55 165.19-4.25Q162.99-0.85 158.19-0.85L158.19-0.85Q153.99-0.85 150.96-3.95 147.94-7.05 147.94-13.15L147.94-13.15Q147.94-18.55 150.86-22.08 153.78-25.6 158.53-25.6L158.53-25.6Q163.03-25.6 165.19-22L165.19-22ZM190.73-8.55L190.73-10.4 188.38-10.4Q186.53-10.4 185.53-9.6 184.53-8.8 184.53-7.55L184.53-7.55Q184.53-5 187.48-5L187.48-5Q189.03-5 189.88-5.95 190.73-6.9 190.73-8.55L190.73-8.55ZM178.88-17.55L178.88-17.55 178.88-24.1Q181.88-25.8 187.53-25.8L187.53-25.8Q192.93-25.8 195.58-23.48 198.23-21.15 198.23-16.25L198.23-16.25 198.23 0 191.08 0 191.08-3.1Q189.48 0.15 184.78 0.15L184.78 0.15Q181.08 0.15 179.01-1.95 176.93-4.05 176.93-7.2L176.93-7.2Q176.93-10.85 179.61-12.88 182.28-14.9 187.53-14.9L187.53-14.9 190.73-14.9 190.73-16.65Q190.73-19.85 186.48-19.85L186.48-19.85Q182.38-19.85 178.88-17.55ZM203.98-25.35L211.28-25.35 211.28-21.4Q213.38-25.6 218.43-25.6L218.43-25.6Q223.78-25.6 225.53-20.8L225.53-20.8Q226.38-23.05 228.38-24.33 230.38-25.6 233.08-25.6L233.08-25.6Q236.83-25.6 239.01-23.23 241.18-20.85 241.18-16.25L241.18-16.25 241.18 0 233.88 0 233.88-15.05Q233.88-17.2 233.03-18.45 232.18-19.7 230.58-19.7L230.58-19.7Q228.88-19.7 227.56-18.32 226.23-16.95 226.23-13.4L226.23-13.4 226.23 0 218.93 0 218.93-15.05Q218.93-17.2 218.08-18.45 217.23-19.7 215.63-19.7L215.63-19.7Q213.93-19.7 212.61-18.32 211.28-16.95 211.28-13.4L211.28-13.4 211.28 0 203.98 0 203.98-25.35ZM252.78-15L261.58-15 261.58-15.6Q261.23-20.05 257.68-20.05L257.68-20.05Q255.93-20.05 254.58-18.78 253.23-17.5 252.78-15L252.78-15ZM266.83-7.55L266.83-7.55 266.83-1.45Q264.23 0.25 258.88 0.25L258.88 0.25Q252.63 0.25 249.15-3.38 245.68-7 245.68-12.7L245.68-12.7Q245.68-18.75 249.05-22.18 252.43-25.6 257.38-25.6L257.38-25.6Q262.48-25.6 265.43-22.63 268.38-19.65 268.38-13.75L268.38-13.75Q268.38-12.6 267.98-9.8L267.98-9.8 253.08-9.8Q253.83-7.7 255.68-6.55 257.53-5.4 260.13-5.4L260.13-5.4Q263.98-5.4 266.83-7.55ZM291.92-15L300.72-15 300.72-15.6Q300.37-20.05 296.82-20.05L296.82-20.05Q295.07-20.05 293.72-18.78 292.37-17.5 291.92-15L291.92-15ZM305.97-7.55L305.97-7.55 305.97-1.45Q303.37 0.25 298.02 0.25L298.02 0.25Q291.77 0.25 288.3-3.38 284.82-7 284.82-12.7L284.82-12.7Q284.82-18.75 288.2-22.18 291.57-25.6 296.52-25.6L296.52-25.6Q301.62-25.6 304.57-22.63 307.52-19.65 307.52-13.75L307.52-13.75Q307.52-12.6 307.12-9.8L307.12-9.8 292.22-9.8Q292.97-7.7 294.82-6.55 296.67-5.4 299.27-5.4L299.27-5.4Q303.12-5.4 305.97-7.55ZM312.72-25.35L320.02-25.35 320.02-21.05Q320.97-23.15 322.94-24.38 324.92-25.6 327.67-25.6L327.67-25.6Q331.57-25.6 333.77-23.28 335.97-20.95 335.97-16.45L335.97-16.45 335.97 0 328.67 0 328.67-15.1Q328.67-17.35 327.62-18.53 326.57-19.7 324.67-19.7L324.67-19.7Q322.67-19.7 321.34-18.13 320.02-16.55 320.02-13.4L320.02-13.4 320.02 0 312.72 0 312.72-25.35ZM356.07-20L350.17-20 350.17-8.35Q350.17-7 350.94-6.3 351.72-5.6 352.97-5.6L352.97-5.6Q354.97-5.6 356.52-6.6L356.52-6.6 356.52-0.55Q354.67 0.25 351.52 0.25L351.52 0.25Q342.87 0.25 342.87-8.4L342.87-8.4 342.87-20 339.22-20 339.22-25.35 342.87-25.35 342.87-31.35 350.17-31.35 350.17-25.35 356.07-25.35 356.07-20ZM361.01-35.35L368.31-35.35 368.31-21.05Q370.26-25.6 375.91-25.6L375.91-25.6Q379.62-25.6 381.94-23.25 384.26-20.9 384.26-16.15L384.26-16.15 384.26 0 376.96 0 376.96-15Q376.96-17.2 375.87-18.45 374.76-19.7 373.01-19.7L373.01-19.7Q372.26-19.7 371.59-19.48 370.91-19.25 370.12-18.68 369.31-18.1 368.81-16.73 368.31-15.35 368.31-13.4L368.31-13.4 368.31 0 361.01 0 361.01-35.35ZM405.71-11.95L405.71-25.35 413.01-25.35 413.01 0 405.71 0 405.71-4.05Q403.71 0.2 398.01 0.2L398.01 0.2Q394.11 0.2 391.94-1.98 389.76-4.15 389.76-8.4L389.76-8.4 389.76-25.35 397.06-25.35 397.06-10.05Q397.06-5.6 400.96-5.6L400.96-5.6Q405.71-5.6 405.71-11.95L405.71-11.95ZM435.01-24.6L435.01-24.6 435.01-18.35Q432.36-19.9 428.81-19.9L428.81-19.9Q427.51-19.9 426.81-19.38 426.11-18.85 426.11-18.05L426.11-18.05Q426.11-17.6 426.36-17.2 426.61-16.8 427.19-16.45 427.76-16.1 428.28-15.83 428.81-15.55 429.74-15.15 430.66-14.75 431.21-14.45L431.21-14.45Q433.51-13.25 434.91-11.68 436.31-10.1 436.31-7.65L436.31-7.65Q436.31-3.9 433.61-1.85 430.91 0.2 426.46 0.2L426.46 0.2Q421.86 0.2 418.76-1.35L418.76-1.35 418.76-7.85Q422.21-5.45 426.06-5.45L426.06-5.45Q428.81-5.45 428.81-7.2L428.81-7.2Q428.81-7.65 428.56-8.05 428.31-8.45 427.71-8.8 427.11-9.15 426.61-9.38 426.11-9.6 425.16-10 424.21-10.4 423.71-10.65L423.71-10.65Q418.66-13.05 418.66-17.85L418.66-17.85Q418.66-21.55 421.49-23.6 424.31-25.65 428.51-25.65L428.51-25.65Q432.41-25.65 435.01-24.6ZM448.36 0L441.06 0 441.06-25.35 448.36-25.35 448.36 0ZM441.71-29.7Q440.46-30.95 440.46-32.7 440.46-34.45 441.71-35.7 442.96-36.95 444.71-36.95 446.46-36.95 447.71-35.7 448.96-34.45 448.96-32.7 448.96-30.95 447.71-29.7 446.46-28.45 444.71-28.45 442.96-28.45 441.71-29.7ZM467.16-8.55L467.16-10.4 464.81-10.4Q462.96-10.4 461.96-9.6 460.96-8.8 460.96-7.55L460.96-7.55Q460.96-5 463.91-5L463.91-5Q465.46-5 466.31-5.95 467.16-6.9 467.16-8.55L467.16-8.55ZM455.31-17.55L455.31-17.55 455.31-24.1Q458.31-25.8 463.96-25.8L463.96-25.8Q469.36-25.8 472-23.48 474.66-21.15 474.66-16.25L474.66-16.25 474.66 0 467.5 0 467.5-3.1Q465.91 0.15 461.21 0.15L461.21 0.15Q457.5 0.15 455.43-1.95 453.36-4.05 453.36-7.2L453.36-7.2Q453.36-10.85 456.03-12.88 458.71-14.9 463.96-14.9L463.96-14.9 467.16-14.9 467.16-16.65Q467.16-19.85 462.91-19.85L462.91-19.85Q458.81-19.85 455.31-17.55ZM496.4-24.6L496.4-24.6 496.4-18.35Q493.75-19.9 490.2-19.9L490.2-19.9Q488.9-19.9 488.2-19.38 487.5-18.85 487.5-18.05L487.5-18.05Q487.5-17.6 487.75-17.2 488-16.8 488.58-16.45 489.15-16.1 489.68-15.83 490.2-15.55 491.13-15.15 492.05-14.75 492.6-14.45L492.6-14.45Q494.9-13.25 496.3-11.68 497.7-10.1 497.7-7.65L497.7-7.65Q497.7-3.9 495-1.85 492.3 0.2 487.85 0.2L487.85 0.2Q483.25 0.2 480.15-1.35L480.15-1.35 480.15-7.85Q483.6-5.45 487.45-5.45L487.45-5.45Q490.2-5.45 490.2-7.2L490.2-7.2Q490.2-7.65 489.95-8.05 489.7-8.45 489.1-8.8 488.5-9.15 488-9.38 487.5-9.6 486.55-10 485.6-10.4 485.1-10.65L485.1-10.65Q480.05-13.05 480.05-17.85L480.05-17.85Q480.05-21.55 482.88-23.6 485.7-25.65 489.9-25.65L489.9-25.65Q493.8-25.65 496.4-24.6ZM516.55-20L510.65-20 510.65-8.35Q510.65-7 511.43-6.3 512.2-5.6 513.45-5.6L513.45-5.6Q515.45-5.6 517-6.6L517-6.6 517-0.55Q515.15 0.25 512 0.25L512 0.25Q503.35 0.25 503.35-8.4L503.35-8.4 503.35-20 499.7-20 499.7-25.35 503.35-25.35 503.35-31.35 510.65-31.35 510.65-25.35 516.55-25.35 516.55-20ZM540.14-12.6L540.14-12.6Q540.34-9.25 542.14-7.4 543.94-5.55 546.89-5.55L546.89-5.55Q550.04-5.55 552.94-7.3L552.94-7.3 552.94-1.2Q549.99 0.4 545.84 0.4L545.84 0.4Q540.14 0.4 536.44-3.23 532.74-6.85 532.74-12.6L532.74-12.6Q532.84-18.3 536.44-22.03 540.04-25.75 546.29-25.75L546.29-25.75Q550.14-25.75 552.94-24.3L552.94-24.3 552.94-18.05Q550.29-19.7 547.04-19.7L547.04-19.7Q543.99-19.7 542.09-17.88 540.19-16.05 540.14-12.6ZM568.64 0.4L568.64 0.4Q562.69 0.4 559.44-3.18 556.19-6.75 556.19-12.35L556.19-12.35Q556.19-18.2 559.59-21.98 562.99-25.75 568.64-25.75L568.64-25.75Q574.54-25.75 577.79-22.1 581.04-18.45 581.04-12.8L581.04-12.8Q581.04-7.05 577.77-3.33 574.49 0.4 568.64 0.4ZM568.59-20L568.59-20Q566.19-20 564.99-17.95 563.79-15.9 563.79-12.65 563.79-9.4 565.02-7.33 566.24-5.25 568.69-5.25L568.69-5.25Q571.09-5.25 572.27-7.28 573.44-9.3 573.44-12.55L573.44-12.55Q573.44-20 568.59-20ZM585.79-25.35L593.09-25.35 593.09-21.4Q595.19-25.6 600.24-25.6L600.24-25.6Q605.59-25.6 607.34-20.8L607.34-20.8Q608.19-23.05 610.19-24.33 612.19-25.6 614.89-25.6L614.89-25.6Q618.64-25.6 620.81-23.23 622.99-20.85 622.99-16.25L622.99-16.25 622.99 0 615.69 0 615.69-15.05Q615.69-17.2 614.84-18.45 613.99-19.7 612.39-19.7L612.39-19.7Q610.69-19.7 609.36-18.32 608.04-16.95 608.04-13.4L608.04-13.4 608.04 0 600.74 0 600.74-15.05Q600.74-17.2 599.89-18.45 599.04-19.7 597.44-19.7L597.44-19.7Q595.74-19.7 594.41-18.32 593.09-16.95 593.09-13.4L593.09-13.4 593.09 0 585.79 0 585.79-25.35ZM628.74-25.35L636.04-25.35 636.04-21.4Q638.14-25.6 643.19-25.6L643.19-25.6Q648.54-25.6 650.29-20.8L650.29-20.8Q651.14-23.05 653.14-24.33 655.14-25.6 657.84-25.6L657.84-25.6Q661.59-25.6 663.76-23.23 665.94-20.85 665.94-16.25L665.94-16.25 665.94 0 658.64 0 658.64-15.05Q658.64-17.2 657.79-18.45 656.94-19.7 655.34-19.7L655.34-19.7Q653.64-19.7 652.31-18.32 650.99-16.95 650.99-13.4L650.99-13.4 650.99 0 643.69 0 643.69-15.05Q643.69-17.2 642.84-18.45 641.99-19.7 640.39-19.7L640.39-19.7Q638.69-19.7 637.36-18.32 636.04-16.95 636.04-13.4L636.04-13.4 636.04 0 628.74 0 628.74-25.35ZM687.38-11.95L687.38-25.35 694.68-25.35 694.68 0 687.38 0 687.38-4.05Q685.38 0.2 679.68 0.2L679.68 0.2Q675.78 0.2 673.61-1.98 671.43-4.15 671.43-8.4L671.43-8.4 671.43-25.35 678.73-25.35 678.73-10.05Q678.73-5.6 682.63-5.6L682.63-5.6Q687.38-5.6 687.38-11.95L687.38-11.95ZM700.68-25.35L707.98-25.35 707.98-21.05Q708.93-23.15 710.91-24.38 712.88-25.6 715.63-25.6L715.63-25.6Q719.53-25.6 721.73-23.28 723.93-20.95 723.93-16.45L723.93-16.45 723.93 0 716.63 0 716.63-15.1Q716.63-17.35 715.58-18.53 714.53-19.7 712.63-19.7L712.63-19.7Q710.63-19.7 709.31-18.13 707.98-16.55 707.98-13.4L707.98-13.4 707.98 0 700.68 0 700.68-25.35ZM737.23 0L729.93 0 729.93-25.35 737.23-25.35 737.23 0ZM730.58-29.7Q729.33-30.95 729.33-32.7 729.33-34.45 730.58-35.7 731.83-36.95 733.58-36.95 735.33-36.95 736.58-35.7 737.83-34.45 737.83-32.7 737.83-30.95 736.58-29.7 735.33-28.45 733.58-28.45 731.83-28.45 730.58-29.7ZM757.83-20L751.93-20 751.93-8.35Q751.93-7 752.7-6.3 753.48-5.6 754.73-5.6L754.73-5.6Q756.73-5.6 758.28-6.6L758.28-6.6 758.28-0.55Q756.43 0.25 753.28 0.25L753.28 0.25Q744.63 0.25 744.63-8.4L744.63-8.4 744.63-20 740.98-20 740.98-25.35 744.63-25.35 744.63-31.35 751.93-31.35 751.93-25.35 757.83-25.35 757.83-20ZM769.82-0.4L769.82-0.4 760.02-25.35 767.97-25.35 770.72-17.45Q771.77-14.4 772.45-12.2 773.12-10 773.27-9.3L773.27-9.3 773.42-8.6Q773.97-10.6 776.12-17.45L776.12-17.45 778.62-25.35 786.12-25.35 776.97-0.75Q773.02 9.9 764.92 9.9L764.92 9.9Q763.37 9.9 762.12 9.65L762.12 9.65 762.12 3.85Q762.92 4.05 763.82 4.05L763.82 4.05Q767.97 4.05 769.82-0.4Z" opacity="1" transform="matrix(1,0,0,1,0,0)" fill="#000000" class="slogan-text-1" data-fill-palette-color="secondary" id="text-1"></path></svg></g></svg></g></svg></g></svg></g><g><svg viewBox="0 0 146.9967141416848 120.73704567369498" height="120.73704567369498" width="146.9967141416848"><g><svg xmlns="http://www.w3.org/2000/svg" xmlns:xlink="http://www.w3.org/1999/xlink" version="1.1" x="0" y="0" viewBox="3.7927560917625067 11.425999999999961 92.51498785539653 75.98800000000001" enable-background="new 0 0 100 100" xml:space="preserve" height="120.73704567369498" width="146.9967141416848" class="icon-icon-0" data-fill-palette-color="accent" id="icon-0"><path d="M95.774 82.64c-0.751-0.811-2.017-0.857-2.826-0.105-0.188 0.175-1.145 0.881-2.046 0.881-0.867 0-1.775-0.642-2.055-0.891-0.055-0.05-0.115-0.087-0.174-0.129-0.004-0.003-0.008-0.007-0.012-0.01-0.432-0.312-0.953-0.429-1.455-0.355-0.002 0.001-0.004 0.001-0.005 0.001-0.118 0.017-0.234 0.047-0.348 0.085-0.015 0.005-0.029 0.009-0.044 0.015-0.098 0.035-0.191 0.08-0.283 0.131-0.031 0.017-0.063 0.034-0.092 0.053-0.07 0.044-0.138 0.095-0.203 0.148-0.027 0.021-0.057 0.037-0.083 0.061-0.276 0.248-1.186 0.892-2.056 0.892-0.775 0-1.578-0.51-1.94-0.796-0.17-4.459-5.589-7.691-13.202-9.631l2.519-8.627 7.891 1.588c0.133 0.026 0.265 0.039 0.396 0.039 0.839 0 1.607-0.53 1.89-1.351 0.039-0.113 0.067-0.229 0.085-0.344 0.744-4.067-3.604-8.232-9.953-9.511-1.219-0.245-2.439-0.37-3.629-0.37-4.961 0-8.591 2.111-9.248 5.378-0.218 1.083 0.483 2.138 1.566 2.355l7.067 1.423-2.501 8.567c-3.938-0.722-8.258-1.146-12.63-1.266 0.315-5.828-0.388-12.524-0.773-15.591-0.945-7.509-3.254-14.541-4.546-18.064-0.277-0.755-0.535-1.43-0.786-2.069 1.712 0.749 3.645 1.363 5.752 1.628 0.786 0.099 1.599 0.148 2.417 0.148 0 0 0 0 0.001 0 6.552 0 11.885-3.157 12.108-3.292 0.526-0.315 0.878-0.855 0.955-1.463s-0.13-1.219-0.561-1.655c-0.214-0.217-5.018-5.019-11.878-6.404 3.965-3.171 6.181-7.086 6.296-7.294 0.31-0.556 0.335-1.227 0.069-1.805-0.265-0.579-0.79-0.996-1.413-1.125-0.06-0.012-1.485-0.301-3.58-0.301-2.354 0-5.886 0.369-9.354 2.123-1.963 0.992-3.65 2.297-5.049 3.624-1.598-1.859-3.658-3.751-6.237-5.162-4.146-2.268-8.642-2.743-11.684-2.743-2.327 0-3.907 0.277-3.974 0.289-0.596 0.106-1.112 0.478-1.403 1.009-0.291 0.532-0.325 1.167-0.092 1.726 0.102 0.246 2.005 4.726 6.067 8.577C17.53 24.3 12.293 28.448 12.05 28.644c-0.509 0.411-0.786 1.045-0.74 1.697 0.046 0.653 0.408 1.242 0.97 1.577 0.219 0.131 4.653 2.729 10.653 3.556-4.956 4.673-7.096 10.324-7.198 10.602-0.227 0.614-0.138 1.3 0.236 1.836 0.374 0.536 0.987 0.856 1.641 0.856 0 0 0.001 0 0.001 0 0.347 0 8.582-0.062 15.554-4.923 3.26-2.273 5.621-5.163 7.233-7.635 0.041 0.158 0.079 0.307 0.121 0.473 1.267 4.933 3.182 12.388 4.074 19.483 0.7 5.565 0.803 10.713 0.781 14.773C30.892 71.629 17.5 75.685 17.5 82.833c0 0.029 0.007 0.058 0.009 0.087-0.41 0.247-0.964 0.495-1.504 0.495-0.868 0-1.774-0.641-2.052-0.89-0.055-0.051-0.117-0.088-0.176-0.131-0.002-0.003-0.005-0.005-0.008-0.007-0.539-0.39-1.214-0.478-1.816-0.271-0.011 0.004-0.021 0.007-0.032 0.011-0.1 0.035-0.196 0.082-0.29 0.134-0.031 0.017-0.062 0.033-0.091 0.053-0.069 0.042-0.135 0.093-0.199 0.145-0.028 0.022-0.06 0.039-0.087 0.063-0.277 0.248-1.187 0.893-2.057 0.893-0.869 0-1.776-0.642-2.055-0.891-0.81-0.741-2.068-0.691-2.815 0.115-0.751 0.81-0.705 2.074 0.105 2.826 0.215 0.199 2.175 1.949 4.765 1.949 1.369 0 2.552-0.488 3.404-0.979 0.852 0.49 2.035 0.979 3.404 0.979 1.369 0 2.552-0.488 3.404-0.979 0.853 0.49 2.035 0.979 3.405 0.979 1.37 0 2.552-0.488 3.404-0.979 0.853 0.49 2.035 0.979 3.405 0.979 1.369 0 2.552-0.488 3.404-0.979 0.853 0.49 2.035 0.979 3.404 0.979 1.37 0 2.552-0.488 3.405-0.979 0.852 0.49 2.036 0.979 3.405 0.979s2.551-0.488 3.402-0.979c0.854 0.49 2.035 0.979 3.405 0.979s2.554-0.488 3.405-0.979c0.853 0.49 2.035 0.979 3.404 0.979 1.368 0 2.552-0.488 3.403-0.979 0.853 0.49 2.034 0.979 3.403 0.979 1.37 0 2.553-0.488 3.405-0.979 0.853 0.49 2.035 0.979 3.405 0.979 1.369 0 2.552-0.488 3.404-0.979 0.853 0.49 2.035 0.979 3.404 0.979s2.552-0.488 3.404-0.979c0.853 0.49 2.035 0.979 3.404 0.979 1.37 0 2.553-0.488 3.404-0.979 0.853 0.49 2.036 0.979 3.404 0.979 2.591 0 4.552-1.749 4.767-1.949C96.478 84.715 96.526 83.449 95.774 82.64zM64.787 58.934c0.868-0.315 2.001-0.521 3.361-0.521 0.925 0 1.88 0.099 2.839 0.292 2.557 0.515 4.47 1.552 5.61 2.607L64.787 58.934zM20.979 44.415c1.344-2.346 3.636-5.579 7.04-7.953 0.486-0.339 0.982-0.643 1.481-0.929 3.081-0.394 5.844-1.344 8.081-2.369-1.381 2.289-3.57 5.215-6.702 7.399C27.49 42.926 23.653 43.961 20.979 44.415zM39.344 22.316c-0.578 0.734-1.032 1.383-1.366 1.891-1.944-0.652-4.327-1.239-6.952-1.459-3.525-1.957-5.943-5.111-7.31-7.319 2.593-0.045 6.593 0.282 10.189 2.25C36.167 18.915 37.972 20.646 39.344 22.316zM55.989 17.589c-1.391 1.718-3.504 3.864-6.202 5.229-1.471 0.744-2.967 1.169-4.336 1.41-0.771 0.135-1.5 0.214-2.16 0.25-0.194 0.011-0.389 0.021-0.57 0.026 0.107-0.132 0.227-0.27 0.342-0.406 0.416-0.493 0.885-1.008 1.406-1.526 1.219-1.21 2.713-2.419 4.447-3.297C51.461 17.988 54.092 17.637 55.989 17.589zM61.832 31.449c-1.854 0.716-4.494 1.474-7.364 1.474h-0.001c-0.652 0-1.298-0.04-1.919-0.117-3.587-0.451-6.67-2.2-8.638-3.601 1.854-0.716 4.494-1.475 7.365-1.475 0.651 0 1.297 0.04 1.919 0.117C56.781 28.298 59.864 30.047 61.832 31.449zM29.961 26.686c3.167 0.16 6.011 0.995 8.031 1.779-0.065 0.037-0.141 0.075-0.208 0.112-0.149 0.082-0.305 0.165-0.463 0.249-2.271 1.197-5.46 2.486-9.05 2.813-0.132 0.012-0.261 0.034-0.395 0.043-4.128 0.289-7.939-0.787-10.467-1.77 2.365-1.326 5.999-2.929 10.116-3.218C28.355 26.637 29.166 26.646 29.961 26.686zM77.285 83.415c-0.604 0-1.222-0.31-1.639-0.582-0.183-0.119-0.33-0.231-0.415-0.308-0.055-0.05-0.116-0.088-0.175-0.131-0.004-0.002-0.008-0.006-0.012-0.009-0.537-0.388-1.211-0.475-1.813-0.269-0.012 0.004-0.023 0.008-0.035 0.012-0.1 0.036-0.196 0.081-0.29 0.134-0.029 0.017-0.058 0.032-0.087 0.05-0.072 0.046-0.141 0.097-0.208 0.152-0.025 0.021-0.055 0.036-0.08 0.059-0.085 0.076-0.233 0.189-0.417 0.31-0.417 0.272-1.034 0.582-1.639 0.582s-1.222-0.31-1.639-0.582c-0.183-0.119-0.33-0.231-0.415-0.308-0.029-0.027-0.063-0.045-0.094-0.07-0.055-0.045-0.11-0.088-0.169-0.126-0.053-0.034-0.106-0.064-0.161-0.093-0.061-0.032-0.121-0.063-0.184-0.087-0.059-0.024-0.118-0.043-0.179-0.061-0.063-0.019-0.125-0.035-0.188-0.048-0.063-0.012-0.125-0.019-0.188-0.025-0.063-0.006-0.126-0.01-0.19-0.01s-0.127 0.005-0.191 0.011c-0.063 0.006-0.125 0.014-0.188 0.025-0.064 0.013-0.127 0.03-0.19 0.049-0.06 0.018-0.117 0.036-0.175 0.06-0.064 0.026-0.126 0.058-0.188 0.09-0.053 0.028-0.105 0.057-0.156 0.09-0.061 0.04-0.118 0.086-0.176 0.134-0.03 0.024-0.063 0.043-0.093 0.07-0.062 0.057-0.21 0.172-0.406 0.299-0.405 0.263-1.032 0.582-1.64 0.582-0.603 0-1.22-0.31-1.637-0.582-0.183-0.119-0.33-0.232-0.415-0.309-0.031-0.028-0.066-0.047-0.099-0.073-0.054-0.043-0.107-0.085-0.164-0.122-0.052-0.034-0.105-0.063-0.159-0.092-0.063-0.033-0.125-0.063-0.189-0.09-0.056-0.021-0.111-0.039-0.168-0.057-0.066-0.02-0.133-0.037-0.2-0.05-0.059-0.012-0.116-0.018-0.176-0.023-0.067-0.007-0.135-0.012-0.203-0.012-0.061 0-0.119 0.005-0.179 0.011-0.067 0.006-0.133 0.014-0.199 0.026-0.062 0.012-0.121 0.029-0.181 0.047-0.063 0.019-0.123 0.037-0.184 0.063-0.063 0.024-0.122 0.055-0.182 0.086-0.055 0.029-0.108 0.059-0.161 0.094-0.061 0.039-0.116 0.084-0.173 0.131-0.031 0.025-0.065 0.044-0.095 0.071-0.062 0.057-0.21 0.172-0.406 0.299-0.405 0.263-1.031 0.582-1.638 0.582-0.603 0-1.221-0.31-1.639-0.582-0.183-0.119-0.331-0.232-0.416-0.309-0.028-0.026-0.062-0.044-0.091-0.067-0.057-0.046-0.112-0.091-0.173-0.129-0.052-0.034-0.104-0.063-0.158-0.092-0.062-0.032-0.123-0.063-0.188-0.088-0.057-0.022-0.114-0.041-0.173-0.059-0.064-0.019-0.129-0.036-0.195-0.049-0.06-0.012-0.119-0.019-0.18-0.023-0.066-0.007-0.133-0.012-0.2-0.012-0.061 0-0.12 0.005-0.181 0.011-0.066 0.007-0.132 0.014-0.198 0.026-0.061 0.013-0.12 0.029-0.18 0.047-0.063 0.019-0.125 0.038-0.187 0.063-0.06 0.024-0.117 0.055-0.175 0.085s-0.114 0.061-0.17 0.098c-0.055 0.036-0.107 0.077-0.159 0.12-0.034 0.027-0.071 0.049-0.104 0.079-0.062 0.057-0.209 0.172-0.405 0.299-0.404 0.263-1.031 0.582-1.639 0.582-0.604 0-1.222-0.31-1.64-0.582-0.182-0.119-0.33-0.232-0.415-0.309-0.056-0.05-0.116-0.088-0.175-0.131-0.004-0.002-0.007-0.005-0.01-0.007-0.432-0.312-0.951-0.43-1.451-0.357-0.005 0.001-0.01 0.001-0.015 0.002-0.115 0.018-0.228 0.045-0.338 0.082-0.019 0.006-0.036 0.012-0.054 0.019-0.095 0.035-0.186 0.077-0.275 0.127-0.033 0.019-0.066 0.037-0.099 0.058-0.069 0.043-0.135 0.093-0.199 0.146-0.027 0.022-0.058 0.038-0.084 0.062-0.085 0.076-0.233 0.189-0.417 0.31-0.416 0.272-1.033 0.582-1.637 0.582s-1.222-0.31-1.639-0.582c-0.183-0.119-0.33-0.231-0.415-0.308-0.03-0.027-0.063-0.046-0.095-0.07-0.055-0.045-0.108-0.087-0.166-0.125-0.055-0.036-0.111-0.066-0.168-0.097-0.058-0.03-0.115-0.059-0.176-0.083-0.062-0.024-0.124-0.045-0.188-0.063-0.059-0.017-0.118-0.033-0.178-0.045-0.066-0.013-0.132-0.021-0.199-0.026-0.061-0.006-0.12-0.01-0.181-0.01-0.066 0-0.132 0.005-0.198 0.012-0.061 0.006-0.122 0.013-0.183 0.024-0.065 0.013-0.128 0.03-0.191 0.049-0.06 0.019-0.119 0.037-0.178 0.061-0.062 0.025-0.122 0.056-0.181 0.087-0.056 0.029-0.111 0.06-0.164 0.095-0.058 0.038-0.112 0.081-0.166 0.126-0.033 0.026-0.069 0.046-0.1 0.075-0.061 0.057-0.209 0.172-0.405 0.299-0.405 0.263-1.032 0.582-1.639 0.582-0.603 0-1.221-0.31-1.638-0.582-0.183-0.119-0.332-0.232-0.417-0.309-0.053-0.049-0.113-0.085-0.169-0.126-0.006-0.005-0.013-0.01-0.019-0.015-0.104-0.075-0.212-0.138-0.326-0.19-0.002-0.001-0.003-0.002-0.005-0.002-0.355-0.163-0.742-0.217-1.12-0.162-0.002 0.001-0.004 0.001-0.006 0.001-0.118 0.018-0.233 0.046-0.347 0.085-0.016 0.005-0.031 0.01-0.046 0.016-0.097 0.035-0.19 0.078-0.281 0.129-0.032 0.018-0.063 0.036-0.095 0.055-0.069 0.044-0.135 0.094-0.2 0.146-0.027 0.022-0.058 0.038-0.084 0.062-0.085 0.076-0.234 0.19-0.418 0.311-0.417 0.272-1.035 0.582-1.638 0.582-0.604 0-1.222-0.31-1.639-0.582-0.183-0.119-0.33-0.231-0.415-0.308-0.079-0.072-0.166-0.126-0.252-0.183-0.005-0.004-0.01-0.008-0.015-0.011-0.135-0.088-0.278-0.158-0.427-0.21-0.001 0-0.002-0.001-0.003-0.001-0.145-0.051-0.295-0.082-0.447-0.098-0.008-0.001-0.015-0.004-0.022-0.004-0.157-0.016-0.315-0.013-0.472 0.01-0.004 0.001-0.009 0.001-0.013 0.002-0.114 0.018-0.225 0.045-0.334 0.081-0.021 0.007-0.041 0.014-0.062 0.021-0.09 0.033-0.178 0.074-0.264 0.122-0.038 0.021-0.075 0.041-0.112 0.064-0.063 0.04-0.124 0.086-0.184 0.134-0.031 0.024-0.065 0.043-0.094 0.069-0.084 0.076-0.233 0.189-0.417 0.31-0.417 0.272-1.034 0.582-1.638 0.582-0.469 0-0.946-0.188-1.333-0.399 0.006-0.061 0.019-0.12 0.019-0.183 0-2.969 9.146-7.159 23.83-7.889 0.654-0.032 1.324-0.056 2-0.074 0.821-0.022 1.652-0.037 2.504-0.037 0.047 0 0.092 0.001 0.139 0.001 0.68 0.001 1.346 0.012 2.005 0.026 5.127 0.119 9.651 0.654 13.433 1.433 0.391 0.08 0.773 0.163 1.149 0.249 7.355 1.676 11.607 4.268 11.607 6.291 0 0.13 0.015 0.257 0.038 0.38C77.914 83.33 77.597 83.415 77.285 83.415z" fill="#000000" data-fill-palette-color="accent"></path></svg></g></svg></g></svg></g><defs></defs></svg><rect width="395.52" height="82.91469887416024" fill="none" stroke="none" visibility="hidden"></rect></g></svg></g></svg>